<svg width="15" height="18" viewBox="0 0 15 18" fill="none" xmlns="http://www.w3.org/2000/svg">
<path d="M13.25 15.75H5V5.25H13.25V15.75ZM13.25 3.75H5C4.60218 3.75 4.22064 3.90804 3.93934 4.18934C3.65804 4.47064 3.5 4.85218 3.5 5.25V15.75C3.5 16.1478 3.65804 16.5294 3.93934 16.8107C4.22064 17.092 4.60218 17.25 5 17.25H13.25C13.6478 17.25 14.0294 17.092 14.3107 16.8107C14.592 16.5294 14.75 16.1478 14.75 15.75V5.25C14.75 4.85218 14.592 4.47064 14.3107 4.18934C14.0294 3.90804 13.6478 3.75 13.25 3.75ZM11 0.75H2C1.60218 0.75 1.22064 0.908035 0.93934 1.18934C0.658035 1.47064 0.5 1.85218 0.5 2.25V12.75H2V2.25H11V0.75Z" fill="#BFBFBF"/>
</svg>
