<svg width="28" height="18" viewBox="0 0 28 18" fill="none" xmlns="http://www.w3.org/2000/svg">
<path d="M14 0.833328C12.917 0.833328 11.8784 1.26354 11.1126 2.02931C10.3469 2.79508 9.91667 3.83369 9.91667 4.91666C9.91667 5.99963 10.3469 7.03824 11.1126 7.80401C11.8784 8.56979 12.917 9 14 9C15.083 9 16.1216 8.56979 16.8874 7.80401C17.6531 7.03824 18.0833 5.99963 18.0833 4.91666C18.0833 3.83369 17.6531 2.79508 16.8874 2.02931C16.1216 1.26354 15.083 0.833328 14 0.833328ZM14 3.16666C14.4641 3.16666 14.9092 3.35104 15.2374 3.67922C15.5656 4.00741 15.75 4.45253 15.75 4.91666C15.75 5.38079 15.5656 5.82591 15.2374 6.1541C14.9092 6.48229 14.4641 6.66666 14 6.66666C13.5359 6.66666 13.0908 6.48229 12.7626 6.1541C12.4344 5.82591 12.25 5.38079 12.25 4.91666C12.25 4.45253 12.4344 4.00741 12.7626 3.67922C13.0908 3.35104 13.5359 3.16666 14 3.16666ZM6.41667 4.33333C5.64312 4.33333 4.90125 4.64062 4.35427 5.1876C3.80729 5.73458 3.5 6.47645 3.5 7.25C3.5 8.34666 4.11833 9.29166 5.005 9.79333C5.425 10.0267 5.90333 10.1667 6.41667 10.1667C6.93 10.1667 7.40833 10.0267 7.82833 9.79333C8.26 9.54833 8.62167 9.19833 8.89 8.77833C8.03833 7.67 7.58333 6.31666 7.58333 4.91666C7.58333 4.81166 7.58333 4.695 7.58333 4.59C7.23333 4.42666 6.83667 4.33333 6.41667 4.33333ZM21.5833 4.33333C21.1633 4.33333 20.7667 4.42666 20.4167 4.59C20.4167 4.695 20.4167 4.81166 20.4167 4.91666C20.4167 6.31666 19.9617 7.67 19.11 8.77833C19.25 9 19.4017 9.175 19.5767 9.35C19.7633 9.525 19.95 9.67666 20.1717 9.79333C20.5917 10.0267 21.07 10.1667 21.5833 10.1667C22.0967 10.1667 22.575 10.0267 22.995 9.79333C23.8817 9.29166 24.5 8.34666 24.5 7.25C24.5 6.47645 24.1927 5.73458 23.6457 5.1876C23.0987 4.64062 22.3569 4.33333 21.5833 4.33333ZM14 11.3333C11.27 11.3333 5.83333 12.6983 5.83333 15.4167V17.1667H22.1667V15.4167C22.1667 12.6983 16.73 11.3333 14 11.3333ZM5.495 11.975C3.24333 12.2433 0 13.3867 0 15.4167V17.1667H3.5V14.915C3.5 13.7367 4.305 12.7567 5.495 11.975ZM22.505 11.975C23.695 12.7567 24.5 13.7367 24.5 14.915V17.1667H28V15.4167C28 13.3867 24.7567 12.2433 22.505 11.975ZM14 13.6667C15.785 13.6667 17.78 14.25 18.935 14.8333H9.065C10.22 14.25 12.215 13.6667 14 13.6667Z" fill="#2D5380"/>
</svg>
