<svg width="26" height="27" viewBox="0 0 26 27" fill="none" xmlns="http://www.w3.org/2000/svg">
<path fill-rule="evenodd" clip-rule="evenodd" d="M12.9944 26.0357C6.68853 26.0357 1.73774 21.8112 0.619314 15.6875C0.605396 15.6113 0.585859 15.4964 0.560704 15.3426L6.80911 15.3427C6.8365 15.4348 6.85749 15.5035 6.87208 15.5488C7.79849 18.4233 10.3147 19.9097 12.9944 19.9097C15.6786 19.9097 18.1987 18.4494 19.1214 15.5535C19.1361 15.5072 19.1573 15.4369 19.185 15.3426H25.4281C25.4073 15.4711 25.3911 15.5673 25.3797 15.6311C24.2815 21.7853 19.3197 26.0357 12.9944 26.0357ZM12.9944 0C19.5901 0 24.7033 4.57963 25.4992 11.1938C25.5106 11.2886 25.5257 11.4317 25.5445 11.6231H19.3878C19.3701 11.5144 19.3562 11.4334 19.3462 11.38C18.6938 7.88825 15.9431 6.12605 12.9944 6.12605C10.0795 6.12605 7.35802 7.84818 6.66585 11.2608C6.64979 11.34 6.6282 11.4608 6.60105 11.6231H0.444336C0.471538 11.3544 0.493912 11.1538 0.511458 11.0212C1.3749 4.5001 6.45628 0 12.9944 0Z" fill="url(#paint0_linear)"/>
<defs>
<linearGradient id="paint0_linear" x1="3.11563" y1="2.80726" x2="25.4785" y2="25.2178" gradientUnits="userSpaceOnUse">
<stop stop-color="#40E0CF"/>
<stop offset="1" stop-color="#36CDCF"/>
</linearGradient>
</defs>
</svg>
